<?xml version="1.0" encoding="UTF-8" standalone="no"?>
<!-- Created with Inkscape (http://www.inkscape.org/) -->

<svg
   xmlns:dc="http://purl.org/dc/elements/1.1/"
   xmlns:cc="http://creativecommons.org/ns#"
   xmlns:rdf="http://www.w3.org/1999/02/22-rdf-syntax-ns#"
   xmlns:svg="http://www.w3.org/2000/svg"
   xmlns="http://www.w3.org/2000/svg"
   version="1.1"
   width="32"
   height="32"
   id="svg2985">
  <defs
     id="defs2987" />
  <metadata
     id="metadata2990">
    <rdf:RDF>
      <cc:Work
         rdf:about="">
        <dc:format>image/svg+xml</dc:format>
        <dc:type
           rdf:resource="http://purl.org/dc/dcmitype/StillImage" />
        <dc:title></dc:title>
      </cc:Work>
    </rdf:RDF>
  </metadata>
  <g
     id="layer1">
    <rect
       width="32"
       height="32"
       ry="2"
       x="0"
       y="0"
       id="rect3782"
       style="fill:#f0f0f0;fill-opacity:1;stroke:none" />
    <path
       d="m 30.943572,16.193327 a 15.136899,8.2605495 0 1 1 -30.27379794,0 15.136899,8.2605495 0 1 1 30.27379794,0 z"
       transform="matrix(0.99064686,0,0,1.0284209,0.34116898,-0.65355588)"
       id="path2993"
       style="fill:none;stroke:#000000;stroke-opacity:1" />
    <path
       d="m 9.5107949,17.331944 a 9.4214916,8.9079981 0 1 1 -18.8429833,0 9.4214916,8.9079981 0 1 1 18.8429833,0 z"
       transform="matrix(0.9047619,0,0,0.9047619,15.919202,0.31871786)"
       id="path3765"
       style="fill:#8499dd;fill-opacity:1;stroke:#000000;stroke-opacity:1" />
    <path
       d="m 9.5107949,17.331944 a 9.4214916,8.9079981 0 1 1 -18.8429833,0 9.4214916,8.9079981 0 1 1 18.8429833,0 z"
       transform="matrix(0.31086045,0,0,0.31086045,15.97224,10.612184)"
       id="path3780"
       style="fill:#000000;fill-opacity:1;stroke:none" />
  </g>
</svg>
